# xmcd
#
# Track frame offsets:
#	150
#	22089
#	35188
#	47249
#	64861
#	78807
#	98559
#	115480
#	131582
#	144195
#	162654
#
# Disc length: 2392 seconds
#
# Revision: 1
# Processed by: cddbd v1.5.2PL0 Copyright (c) Steve Scherf et al.
# Submitted via: audiograbber 1.83.01
#
DISCID=9809560b
DTITLE=Headwater - Lay You Down
DYEAR=2008
DGENRE=Folk
TTITLE0=Death of Me
TTITLE1=Picture Show
TTITLE2=Brown Stone Road
TTITLE3=Under the Rocks and Stones
TTITLE4=Freight Train
TTITLE5=Only a Matter of Time
TTITLE6=The Drifter
TTITLE7=Pleasure and the Rhyme
TTITLE8=Come and See Me
TTITLE9=Never Going Back
TTITLE10=Follow You Around
EXTD=
EXTT0=
EXTT1=
EXTT2=
EXTT3=
EXTT4=
EXTT5=
EXTT6=
EXTT7=
EXTT8=
EXTT9=
EXTT10=
PLAYORDER=
